HIERARCHY
ROOT hip
{
  OFFSET 0 0 0
  CHANNELS 6 Xposition Yposition Zposition Zrotation Yrotation Xrotation
  JOINT abdomen
  {
    OFFSET 0 20.6881 -0.73152
    CHANNELS 3 Zrotation Xrotation Yrotation
    JOINT chest
    {
      OFFSET 0 11.7043 -0.48768
      CHANNELS 3 Zrotation Xrotation Yrotation
      JOINT neck
      {
        OFFSET 0 22.1894 -2.19456
        CHANNELS 3 Zrotation Xrotation Yrotation
        JOINT head
        {
          OFFSET -0.24384 7.07133 1.2192
          CHANNELS 3 Zrotation Xrotation Yrotation
          JOINT leftEye
          {
            OFFSET 4.14528 8.04674 8.04672
            CHANNELS 3 Zrotation Xrotation Yrotation
            End Site
            {
              OFFSET 1 0 0
            }
          }
          JOINT rightEye
          {
            OFFSET -3.6576 8.04674 8.04672
            CHANNELS 3 Zrotation Xrotation Yrotation
            End Site
            {
              OFFSET 1 0 0
            }
          }
        }
      }
      JOINT rCollar
      {
        OFFSET -2.68224 19.2634 -4.8768
        CHANNELS 3 Zrotation Xrotation Yrotation
        JOINT rShldr
        {
          OFFSET -8.77824 -1.95073 1.46304
          CHANNELS 3 Zrotation Xrotation Yrotation
          JOINT rForeArm
          {
            OFFSET -28.1742 -1.7115 0.48768
            CHANNELS 3 Zrotation Xrotation Yrotation
            JOINT rHand
            {
              OFFSET -22.5879 0.773209 7.07136
              CHANNELS 3 Zrotation Xrotation Yrotation
              JOINT rThumb1
              {
                OFFSET -1.2192 -0.487915 3.41376
                CHANNELS 3 Zrotation Xrotation Yrotation
                JOINT rThumb2
                {
                  OFFSET -3.37035 -0.52449 3.41376
                  CHANNELS 3 Zrotation Xrotation Yrotation
                  End Site
                  {
                    OFFSET -1.78271 -1.18214 1.43049
                  }
                }
              }
              JOINT rIndex1
              {
                OFFSET -7.75947 0.938293 5.60832
                CHANNELS 3 Zrotation Xrotation Yrotation
                JOINT rIndex2
                {
                  OFFSET -2.54057 -0.884171 1.56538
                  CHANNELS 3 Zrotation Xrotation Yrotation
                  End Site
                  {
                    OFFSET -1.62519 -0.234802 1.16502
                  }
                }
              }
              JOINT rMid1
              {
                OFFSET -8.24714 1.18213 3.41376
                CHANNELS 3 Zrotation Xrotation Yrotation
                JOINT rMid2
                {
                  OFFSET -3.10165 -0.590103 1.0647
                  CHANNELS 3 Zrotation Xrotation Yrotation
                  End Site
                  {
                    OFFSET -2.48547 -0.328903 0.83742
                  }
                }
              }
              JOINT rRing1
              {
                OFFSET -8.82822 0.546677 1.51678
                CHANNELS 3 Zrotation Xrotation Yrotation
                JOINT rRing2
                {
                  OFFSET -2.60934 -0.819778 -0.0198488
                  CHANNELS 3 Zrotation Xrotation Yrotation
                  End Site
                  {
                    OFFSET -2.33842 -0.294052 0.168128
                  }
                }
              }
              JOINT rPinky1
              {
                OFFSET -8.27202 -0.0477905 -0.4584
                CHANNELS 3 Zrotation Xrotation Yrotation
                JOINT rPinky2
                {
                  OFFSET -1.82734 -0.647385 -0.700984
                  CHANNELS 3 Zrotation Xrotation Yrotation
                  End Site
                  {
                    OFFSET -1.69225 -0.51767 -0.607171
                  }
                }
              }
            }
          }
        }
      }
      JOINT lCollar
      {
        OFFSET 2.68224 19.2634 -4.8768
        CHANNELS 3 Zrotation Xrotation Yrotation
        JOINT lShldr
        {
          OFFSET 8.77824 -1.95073 1.46304
          CHANNELS 3 Zrotation Xrotation Yrotation
          JOINT lForeArm
          {
            OFFSET 28.1742 -1.7115 0.48768
            CHANNELS 3 Zrotation Xrotation Yrotation
            JOINT lHand
            {
              OFFSET 22.5879 0.773209 7.07136
              CHANNELS 3 Zrotation Xrotation Yrotation
              JOINT lThumb1
              {
                OFFSET 1.2192 -0.487915 3.41376
                CHANNELS 3 Zrotation Xrotation Yrotation
                JOINT lThumb2
                {
                  OFFSET 3.37035 -0.52449 3.41376
                  CHANNELS 3 Zrotation Xrotation Yrotation
                  End Site
                  {
                    OFFSET 1.78271 -1.18214 1.43049
                  }
                }
              }
              JOINT lIndex1
              {
                OFFSET 7.75947 0.938293 5.60832
                CHANNELS 3 Zrotation Xrotation Yrotation
                JOINT lIndex2
                {
                  OFFSET 2.54057 -0.884171 1.56538
                  CHANNELS 3 Zrotation Xrotation Yrotation
                  End Site
                  {
                    OFFSET 1.62519 -0.234802 1.16502
                  }
                }
              }
              JOINT lMid1
              {
                OFFSET 8.24714 1.18213 3.41376
                CHANNELS 3 Zrotation Xrotation Yrotation
                JOINT lMid2
                {
                  OFFSET 3.10165 -0.590103 1.0647
                  CHANNELS 3 Zrotation Xrotation Yrotation
                  End Site
                  {
                    OFFSET 2.48547 -0.328903 0.83742
                  }
                }
              }
              JOINT lRing1
              {
                OFFSET 8.82822 0.546677 1.51678
                CHANNELS 3 Zrotation Xrotation Yrotation
                JOINT lRing2
                {
                  OFFSET 2.60934 -0.819778 -0.0198488
                  CHANNELS 3 Zrotation Xrotation Yrotation
                  End Site
                  {
                    OFFSET 2.33842 -0.294052 0.168128
                  }
                }
              }
              JOINT lPinky1
              {
                OFFSET 8.27202 -0.0477905 -0.4584
                CHANNELS 3 Zrotation Xrotation Yrotation
                JOINT lPinky2
                {
                  OFFSET 1.82734 -0.647385 -0.700984
                  CHANNELS 3 Zrotation Xrotation Yrotation
                  End Site
                  {
                    OFFSET 1.69225 -0.51767 -0.607171
                  }
                }
              }
            }
          }
        }
      }
    }
  }
  JOINT rButtock
  {
    OFFSET -8.77824 4.35084 1.2192
    CHANNELS 3 Zrotation Xrotation Yrotation
    JOINT rThigh
    {
      OFFSET 0 -1.70687 -2.19456
      CHANNELS 3 Zrotation Xrotation Yrotation
      JOINT rShin
      {
        OFFSET 0 -36.8199 0.73152
        CHANNELS 3 Zrotation Xrotation Yrotation
        JOINT rFoot
        {
          OFFSET 0.73152 -45.1104 -5.12064
          CHANNELS 3 Zrotation Xrotation Yrotation
          End Site
          {
            OFFSET -1.1221 -3.69964 12.103
          }
        }
      }
    }
  }
  JOINT lButtock
  {
    OFFSET 8.77824 4.35084 1.2192
    CHANNELS 3 Zrotation Xrotation Yrotation
    JOINT lThigh
    {
      OFFSET 0 -1.70687 -2.19456
      CHANNELS 3 Zrotation Xrotation Yrotation
      JOINT lShin
      {
        OFFSET 0 -36.8199 0.73152
        CHANNELS 3 Zrotation Xrotation Yrotation
        JOINT lFoot
        {
          OFFSET -0.73152 -45.1104 -5.12064
          CHANNELS 3 Zrotation Xrotation Yrotation
          End Site
          {
            OFFSET 1.1221 -3.69964 12.103
          }
        }
      }
    }
  }
}
MOTION
Frames:	7
Frame Time:	0.00833333
29.0777 84.4331 -10.445 -168.941 -69.4745 161.506 -1.79263 4.78286 -7.97399 -1.4093 3.51418 -2.4393 1.85887 27.456 13.6361 4.76961 -31.4805 27.7827 -0.0 0.0 0.0 -0.0 0.0 0.0 -1.50531e-13 6.06851e-13 1.80962e-13 68.4891 34.5796 12.5716 -16.1857 -8.86059 30.0663 -0.0145304 3.45677 0.486404 -4.27557e-10 -1.60255e-09 3.45087e-10 -7.41226e-10 -2.77752e-09 5.99283e-10 -4.27556e-10 -1.60255e-09 3.45076e-10 7.73091 5.47488 0.417314 -4.27563e-10 -1.60255e-09 3.45089e-10 2.90554 0.965183 0.102902 -4.27554e-10 -1.60255e-09 3.45087e-10 10.2786 0.731801 0.0259123 -4.27563e-10 -1.60254e-09 3.4509e-10 2.22167 -0.733487 -0.20892 -1.50606e-13 6.06853e-13 1.80826e-13 -60.6259 4.24546 -1.81084 13.339 -6.43417 -24.2318 1.09197 -28.2703 4.33447 1.67435e-09 5.56885e-10 9.09229e-10 2.87001e-09 9.93489e-10 1.60734e-09 1.67433e-09 5.56889e-10 9.09262e-10 -7.73091 5.47488 -0.417314 1.67435e-09 5.56882e-10 9.09232e-10 -2.90554 0.965183 -0.102902 1.67434e-09 5.56883e-10 9.09226e-10 -10.2786 0.731801 -0.0259123 1.67436e-09 5.56887e-10 9.09216e-10 -2.22167 -0.733487 0.20892 -2.03217e-16 0.0 -3.88251e-19 6.59102 -19.7687 16.5226 -0.38114 42.0278 0.825615 1.46874 0.0273226 21.4129 2.03217e-16 0.0 3.88251e-19 0.163639 1.12229 14.3305 0.0401734 31.5498 -1.14005 29.6469 -40.6985 38.7564
29.083 84.346 -10.0042 -170.535 -69.2847 162.938 -2.14476 5.22942 -7.48402 -1.5551 3.62711 -2.31085 1.71291 27.5452 14.4077 4.69523 -31.7822 29.2759 -0.0 0.0 0.0 -0.0 0.0 0.0 -1.30913e-13 5.34629e-13 8.36759e-14 69.7592 32.3258 11.092 -16.1958 -8.87032 30.0873 -0.0125236 3.20437 0.450814 -5.87958e-10 -2.29035e-09 3.4748e-10 -1.0193e-09 -3.96987e-09 6.04606e-10 -5.87956e-10 -2.29036e-09 3.47471e-10 7.73091 5.47488 0.417314 -5.87964e-10 -2.29035e-09 3.47483e-10 2.90554 0.965183 0.102902 -5.87956e-10 -2.29036e-09 3.47479e-10 10.2786 0.731801 0.0259123 -5.87961e-10 -2.29035e-09 3.4748e-10 2.22167 -0.733487 -0.20892 -1.30982e-13 5.34624e-13 8.3502e-14 -59.7778 4.94902 -2.97098 13.6021 -6.63817 -24.7567 1.13199 -28.7294 4.41828 2.01767e-09 8.34858e-10 1.57431e-09 3.44807e-09 1.48405e-09 2.76592e-09 2.01766e-09 8.34856e-10 1.57434e-09 -7.73091 5.47488 -0.417314 2.01767e-09 8.34854e-10 1.57432e-09 -2.90554 0.965183 -0.102902 2.01767e-09 8.34855e-10 1.57432e-09 -10.2786 0.731801 -0.0259123 2.01768e-09 8.34858e-10 1.5743e-09 -2.22167 -0.733487 0.20892 -2.03217e-16 0.0 -3.88251e-19 6.03861 -20.4392 16.3606 -0.403944 43.0804 0.860678 1.45942 -0.00682517 20.8781 2.03217e-16 0.0 3.88251e-19 -0.613521 1.16454 14.8269 0.0356164 31.4603 -1.13723 29.5681 -40.5327 38.7907
29.0854 84.2728 -9.55318 -172.119 -69.1377 164.368 -2.4788 5.64447 -7.03937 -1.68544 3.72795 -2.19624 1.56627 27.5815 15.0926 4.52283 -32.0159 30.5667 -0.0 0.0 0.0 -0.0 0.0 0.0 -1.02549e-13 4.55619e-13 3.19049e-14 70.9148 30.2095 9.65407 -16.2062 -8.88026 30.1091 -0.0109146 2.98147 0.419401 -8.37513e-10 -2.73293e-09 2.46779e-10 -1.45153e-09 -4.73787e-09 4.31736e-10 -8.3751e-10 -2.73295e-09 2.46773e-10 7.73091 5.47488 0.417314 -8.37519e-10 -2.73293e-09 2.46782e-10 2.90554 0.965183 0.102902 -8.37512e-10 -2.73295e-09 2.46778e-10 10.2786 0.731801 0.0259123 -8.37516e-10 -2.73293e-09 2.46779e-10 2.22167 -0.733487 -0.20892 -1.02604e-13 4.5561e-13 3.17062e-14 -58.9939 5.59813 -4.11455 13.8627 -6.84426 -25.2784 1.17211 -29.1788 4.50105 2.22546e-09 9.79504e-10 2.01482e-09 3.79745e-09 1.74029e-09 3.53264e-09 2.22546e-09 9.79499e-10 2.01483e-09 -7.73091 5.47488 -0.417314 2.22546e-09 9.79501e-10 2.01483e-09 -2.90554 0.965183 -0.102902 2.22546e-09 9.79501e-10 2.01482e-09 -10.2786 0.731801 -0.0259123 2.22547e-09 9.79503e-10 2.01481e-09 -2.22167 -0.733487 0.20892 -2.03217e-16 0.0 -3.88251e-19 5.48155 -21.1575 16.16 -0.427384 44.1171 0.897179 1.39315 0.108533 20.3443 2.03217e-16 0.0 3.88251e-19 -1.35515 1.16326 15.307 0.0304923 31.3709 -1.13376 29.4226 -40.3101 38.7831
29.0927 84.2113 -9.09714 -173.599 -69.0308 165.728 -2.80468 6.02986 -6.63847 -1.79441 3.80921 -2.09611 1.42481 27.552 15.6768 4.21231 -32.1722 31.6154 -0.0 0.0 0.0 -0.0 0.0 0.0 -5.53771e-14 3.5947e-13 5.48195e-14 71.9801 28.2464 8.22149 -16.2275 -8.9003 30.1545 -0.00978362 2.81304 0.395671 -1.30636e-09 -2.89136e-09 -4.81891e-11 -2.26312e-09 -5.01478e-09 -7.65776e-11 -1.30636e-09 -2.89138e-09 -4.81964e-11 7.73091 5.47488 0.417314 -1.30637e-09 -2.89136e-09 -4.81872e-11 2.90554 0.965183 0.102902 -1.30636e-09 -2.89137e-09 -4.81902e-11 10.2786 0.731801 0.0259123 -1.30636e-09 -2.89136e-09 -4.81883e-11 2.22167 -0.733487 -0.20892 -5.54058e-14 3.59461e-13 5.46114e-14 -58.2799 6.17901 -5.24333 14.1164 -7.04871 -25.7888 1.2129 -29.6267 4.58421 2.26984e-09 9.28787e-10 2.17119e-09 3.87169e-09 1.65393e-09 3.80348e-09 2.26983e-09 9.28783e-10 2.17121e-09 -7.73091 5.47488 -0.417314 2.26984e-09 9.28785e-10 2.1712e-09 -2.90554 0.965183 -0.102902 2.26983e-09 9.28784e-10 2.1712e-09 -10.2786 0.731801 -0.0259123 2.26985e-09 9.28786e-10 2.17119e-09 -2.22167 -0.733487 0.20892 -2.03217e-16 0.0 -3.88251e-19 4.90702 -21.9382 15.9175 -0.451498 45.1425 0.935692 1.25907 0.422561 19.8295 2.03217e-16 0.0 3.88251e-19 -2.07176 1.11347 15.7766 0.0246591 31.2769 -1.12934 29.2185 -40.0183 38.7508
29.102 84.1684 -8.63901 -174.949 -68.9756 166.996 -3.14146 6.40421 -6.27201 -1.884 3.87208 -2.00798 1.28144 27.4664 16.1565 3.78296 -32.2961 32.4261 -0.0 0.0 0.0 -0.0 0.0 0.0 6.51709e-15 2.40775e-13 1.16196e-13 72.9688 26.4139 6.78543 -16.2623 -8.93307 30.229 -0.00885093 2.66611 0.374976 -1.9214e-09 -2.87652e-09 -4.73866e-10 -3.32767e-09 -4.99232e-09 -8.1058e-10 -1.9214e-09 -2.87653e-09 -4.73875e-10 7.73091 5.47488 0.417314 -1.92141e-09 -2.87651e-09 -4.73866e-10 2.90554 0.965183 0.102902 -1.9214e-09 -2.87652e-09 -4.73867e-10 10.2786 0.731801 0.0259123 -1.9214e-09 -2.87651e-09 -4.73863e-10 2.22167 -0.733487 -0.20892 6.52552e-15 2.40768e-13 1.15985e-13 -57.6282 6.70035 -6.36196 14.3694 -7.25594 -26.3014 1.25456 -30.0744 4.66808 2.2125e-09 7.38542e-10 2.14944e-09 3.77475e-09 1.32334e-09 3.76348e-09 2.21249e-09 7.38542e-10 2.14947e-09 -7.73091 5.47488 -0.417314 2.2125e-09 7.38541e-10 2.14945e-09 -2.90554 0.965183 -0.102902 2.21249e-09 7.38539e-10 2.14945e-09 -10.2786 0.731801 -0.0259123 2.21251e-09 7.3854e-10 2.14944e-09 -2.22167 -0.733487 0.20892 -2.03217e-16 0.0 -3.88251e-19 4.29693 -22.7739 15.6228 -0.477033 46.171 0.977037 1.0724 0.907859 19.3258 2.03217e-16 0.0 3.88251e-19 -2.77061 1.02714 16.2581 0.0182213 31.1787 -1.12357 28.9325 -39.6526 38.6699
29.1175 84.1363 -8.18475 -176.091 -68.9766 168.106 -3.44643 6.74876 -5.95054 -1.96548 3.93248 -1.9323 1.13638 27.3529 16.5628 3.27941 -32.412 33.073 -0.0 0.0 0.0 -0.0 0.0 0.0 6.35591e-14 1.26879e-13 1.77569e-13 73.8769 24.7054 5.37223 -16.2849 -8.95433 30.2771 -0.00783495 2.50924 0.352882 -2.44465e-09 -2.69283e-09 -8.72776e-10 -4.23325e-09 -4.67691e-09 -1.49877e-09 -2.44464e-09 -2.69284e-09 -8.72788e-10 7.73091 5.47488 0.417314 -2.44465e-09 -2.69282e-09 -8.72778e-10 2.90554 0.965183 0.102902 -2.44465e-09 -2.69284e-09 -8.72777e-10 10.2786 0.731801 0.0259123 -2.44466e-09 -2.69283e-09 -8.72771e-10 2.22167 -0.733487 -0.20892 6.36071e-14 1.26874e-13 1.77361e-13 -57.0464 7.18523 -7.46258 14.6264 -7.4706 -26.8246 1.29539 -30.5026 4.74906 2.0699e-09 5.06479e-10 2.00405e-09 3.53318e-09 9.18396e-10 3.50789e-09 2.06988e-09 5.06482e-10 2.00408e-09 -7.73091 5.47488 -0.417314 2.0699e-09 5.06478e-10 2.00405e-09 -2.90554 0.965183 -0.102902 2.06989e-09 5.06475e-10 2.00405e-09 -10.2786 0.731801 -0.0259123 2.06991e-09 5.06476e-10 2.00404e-09 -2.22167 -0.733487 0.20892 -2.03217e-16 0.0 -3.88251e-19 3.68434 -23.6386 15.2893 -0.503689 47.1816 1.01965 0.862568 1.48017 18.8011 2.03217e-16 0.0 3.88251e-19 -3.41851 0.90765 16.7219 0.0114361 31.0868 -1.11743 28.5676 -39.2442 38.5248
29.134 84.124 -7.73552 -177.042 -69.045 169.069 -3.67631 7.04475 -5.68466 -2.05024 4.00634 -1.86951 0.988772 27.2392 16.9274 2.7493 -32.5402 33.6311 -0.0 0.0 0.0 -0.0 0.0 0.0 9.61742e-14 4.51264e-14 2.00474e-13 74.7032 23.1158 4.00851 -16.2694 -8.93996 30.2435 -0.00655451 2.31098 0.324965 -2.63813e-09 -2.34475e-09 -1.08744e-09 -4.56796e-09 -4.07493e-09 -1.86965e-09 -2.63812e-09 -2.34474e-09 -1.08746e-09 7.73091 5.47488 0.417314 -2.63813e-09 -2.34473e-09 -1.08745e-09 2.90554 0.965183 0.102902 -2.63812e-09 -2.34475e-09 -1.08745e-09 10.2786 0.731801 0.0259123 -2.63813e-09 -2.34474e-09 -1.08744e-09 2.22167 -0.733487 -0.20892 9.62557e-14 4.51222e-14 2.00276e-13 -56.5404 7.65673 -8.5375 14.892 -7.69715 -27.3666 1.33345 -30.8916 4.82336 1.85849e-09 3.30307e-10 1.78949e-09 3.17357e-09 6.08971e-10 3.13198e-09 1.85848e-09 3.30313e-10 1.78953e-09 -7.73091 5.47488 -0.417314 1.85849e-09 3.30307e-10 1.78949e-09 -2.90554 0.965183 -0.102902 1.85848e-09 3.30304e-10 1.78949e-09 -10.2786 0.731801 -0.0259123 1.8585e-09 3.30305e-10 1.78949e-09 -2.22167 -0.733487 0.20892 -2.03217e-16 0.0 -3.88251e-19 3.10363 -24.5062 14.9305 -0.530905 48.1533 1.06177 0.657249 2.05453 18.2221 2.03217e-16 0.0 3.88251e-19 -3.98267 0.758326 17.1383 0.00454849 31.0113 -1.11191 28.1279 -38.8238 38.2997
